<svg width="24" height="25" viewBox="0 0 24 25" fill="none" xmlns="http://www.w3.org/2000/svg">
<path d="M13.2336 0C14.5835 0.00374991 15.2687 0.0112497 15.8603 0.0287493L16.0931 0.0374991C16.3619 0.0474988 16.627 0.0599985 16.9474 0.0749981C18.2242 0.137497 19.0953 0.347492 19.8597 0.656234C20.6516 0.973727 21.3188 1.40372 21.986 2.09745C22.5964 2.7221 23.0685 3.47801 23.3695 4.3124C23.6659 5.10863 23.8675 6.0161 23.9275 7.34732C23.9419 7.67981 23.9539 7.95606 23.9635 8.2373L23.9707 8.4798C23.9887 9.09478 23.9959 9.80851 23.9983 11.2147L23.9995 12.1472V13.7847C24.0024 14.6964 23.9932 15.6081 23.9719 16.5196L23.9647 16.7621C23.9551 17.0433 23.9431 17.3196 23.9287 17.6521C23.8687 18.9833 23.6647 19.8895 23.3695 20.687C23.0685 21.5214 22.5964 22.2773 21.986 22.9019C21.3863 23.5378 20.6607 24.0296 19.8597 24.3432C19.0953 24.6519 18.2242 24.8619 16.9474 24.9244L16.0931 24.9619L15.8603 24.9694C15.2687 24.9869 14.5835 24.9956 13.2336 24.9981L12.3385 24.9994H10.7677C9.8921 25.0026 9.01646 24.993 8.14107 24.9706L7.90828 24.9631C7.62343 24.9519 7.33864 24.939 7.05393 24.9244C5.77719 24.8619 4.90603 24.6519 4.14047 24.3432C3.33991 24.0295 2.61468 23.5376 2.01538 22.9019C1.40455 22.2774 0.931966 21.5215 0.630651 20.687C0.334266 19.8908 0.132676 18.9833 0.0726788 17.6521L0.0366807 16.7621L0.0306811 16.5196C0.00856149 15.6081 -0.00143908 14.6964 0.000682522 13.7847V11.2147C-0.00263878 10.303 0.00616171 9.39127 0.0270813 8.4798L0.0354808 8.2373C0.0450803 7.95606 0.0570797 7.67981 0.071479 7.34732C0.131476 6.0161 0.333066 5.10988 0.629451 4.3124C0.931469 3.47766 1.40488 2.72173 2.01658 2.09745C2.61553 1.4619 3.34034 0.970068 4.14047 0.656234C4.90603 0.347492 5.77599 0.137497 7.05393 0.0749981C7.37311 0.0599985 7.6395 0.0474988 7.90828 0.0374991L8.14107 0.0299992C9.01606 0.00779069 9.8913 -0.00179333 10.7665 0.00124988L13.2336 0ZM12.0001 6.24985C10.4089 6.24985 8.88281 6.90831 7.75765 8.08039C6.63249 9.25246 6.00038 10.8421 6.00038 12.4997C6.00038 14.1573 6.63249 15.7469 7.75765 16.919C8.88281 18.0911 10.4089 18.7495 12.0001 18.7495C13.5913 18.7495 15.1173 18.0911 16.2425 16.919C17.3677 15.7469 17.9998 14.1573 17.9998 12.4997C17.9998 10.8421 17.3677 9.25246 16.2425 8.08039C15.1173 6.90831 13.5913 6.24985 12.0001 6.24985ZM12.0001 8.74979C12.4728 8.74971 12.9409 8.84662 13.3777 9.03499C13.8145 9.22337 14.2114 9.49952 14.5457 9.84767C14.88 10.1958 15.1453 10.6092 15.3262 11.0641C15.5072 11.519 15.6004 12.0066 15.6005 12.4991C15.6006 12.9915 15.5075 13.4792 15.3267 13.9341C15.1459 14.3891 14.8808 14.8026 14.5466 15.1508C14.2123 15.4991 13.8155 15.7754 13.3788 15.9639C12.9421 16.1524 12.474 16.2495 12.0013 16.2496C11.0465 16.2496 10.1309 15.8545 9.45582 15.1513C8.78072 14.448 8.40146 13.4942 8.40146 12.4997C8.40146 11.5052 8.78072 10.5514 9.45582 9.84811C10.1309 9.14487 11.0465 8.74979 12.0013 8.74979M18.301 4.37489C17.9032 4.37489 17.5216 4.53951 17.2404 4.83253C16.9591 5.12555 16.801 5.52297 16.801 5.93736C16.801 6.35175 16.9591 6.74917 17.2404 7.04218C17.5216 7.3352 17.9032 7.49982 18.301 7.49982C18.6988 7.49982 19.0803 7.3352 19.3616 7.04218C19.6429 6.74917 19.8009 6.35175 19.8009 5.93736C19.8009 5.52297 19.6429 5.12555 19.3616 4.83253C19.0803 4.53951 18.6988 4.37489 18.301 4.37489Z" fill="#D6B3FF"/>
</svg>
