<svg width="30" height="23" viewBox="0 0 30 23" fill="none" xmlns="http://www.w3.org/2000/svg">
<path d="M30 2.70588C28.8958 3.17941 27.7055 3.49059 26.4723 3.63941C27.7342 2.92235 28.7094 1.78588 29.1683 0.419412C27.978 1.09588 26.6587 1.56941 25.2677 1.84C24.1348 0.676471 22.543 0 20.7361 0C17.3662 0 14.6128 2.59765 14.6128 5.80412C14.6128 6.26412 14.6702 6.71059 14.7706 7.13C9.66539 6.88647 5.1195 4.57294 2.09369 1.06882C1.5631 1.92118 1.26195 2.92235 1.26195 3.97765C1.26195 5.99353 2.33748 7.77941 4.00096 8.79412C2.98279 8.79412 2.03633 8.52353 1.20459 8.11765V8.15823C1.20459 10.9724 3.32696 13.3265 6.13767 13.8541C5.23543 14.0881 4.28782 14.1205 3.36998 13.9488C3.75947 15.1022 4.52228 16.1114 5.55117 16.8346C6.58006 17.5577 7.8233 17.9585 9.10612 17.9806C6.93165 19.6048 4.23615 20.4827 1.46272 20.47C0.975143 20.47 0.487572 20.4429 0 20.3888C2.72467 22.0394 5.96558 23 9.43595 23C20.7361 23 26.9455 14.1518 26.9455 6.48059C26.9455 6.22353 26.9455 5.98 26.9312 5.72294C28.1358 4.91118 29.1683 3.88294 30 2.70588Z" fill="#D6B3FF"/>
</svg>
