<svg width="134" height="43" viewBox="0 0 134 43" fill="none" xmlns="http://www.w3.org/2000/svg">
<path d="M0.788997 39.322C0.0474945 40.1407 0.110064 41.4054 0.92875 42.1469C1.74744 42.8885 3.01222 42.8259 3.75372 42.0072L0.788997 39.322ZM133.811 17.7308L118.859 0.131057L111.093 21.8803L133.811 17.7308ZM2.27136 40.6646L3.75372 42.0072C28.6164 14.5565 76.5865 3.13563 116.345 13.6106L116.855 11.6766L117.365 9.74258C76.4465 -1.03773 26.8385 10.561 0.788997 39.322L2.27136 40.6646Z" fill="white"/>
<path d="M0.788997 39.322C0.0474945 40.1407 0.110064 41.4054 0.92875 42.1469C1.74744 42.8885 3.01222 42.8259 3.75372 42.0072L0.788997 39.322ZM133.811 17.7308L118.859 0.131057L111.093 21.8803L133.811 17.7308ZM2.27136 40.6646L3.75372 42.0072C28.6164 14.5565 76.5865 3.13563 116.345 13.6106L116.855 11.6766L117.365 9.74258C76.4465 -1.03773 26.8385 10.561 0.788997 39.322L2.27136 40.6646Z" fill="url(#paint0_linear_2041_2904)"/>
<defs>
<linearGradient id="paint0_linear_2041_2904" x1="130.371" y1="-2.00022" x2="1.67782" y2="28.9335" gradientUnits="userSpaceOnUse">
<stop stop-color="#A52BBE"/>
<stop offset="0.514423" stop-color="#ED92FF"/>
<stop offset="1" stop-color="#A52BBE"/>
</linearGradient>
</defs>
</svg>
