<svg width="1365" height="186" viewBox="0 0 1365 186" fill="none" xmlns="http://www.w3.org/2000/svg">
<path d="M88.41 183C33.6546 183 0 147.128 0 92C0 36.8725 37.9282 1 99.3611 1C155.452 1 192.803 26.7116 192.803 69.1782C180.646 58.388 162.98 54.0996 147.44 54.2373C147.44 48.1015 132.749 38.9826 98.2927 38.9826C57.6935 38.9826 42.4688 52.6985 42.4688 92C42.4688 131.301 53.3211 145.017 92.5848 145.017V183C77.9491 183 104.537 183 88.41 183Z" fill="url(#paint0_radial_229_2929)"/>
<path d="M143.728 183C143.728 180.875 142.825 178.837 141.217 177.334C139.61 175.831 137.429 174.987 135.155 174.987C132.882 174.987 130.701 175.831 129.093 177.334C127.485 178.837 126.582 180.875 126.582 183H143.728Z" fill="url(#paint1_radial_229_2929)"/>
<path fill-rule="evenodd" clip-rule="evenodd" d="M118.896 95.4079V119.447H128.947L137.52 109.776C139.491 110.145 154.075 112.926 154.075 121.105C154.075 129.284 150.134 132.066 148.163 132.434H118.896C117.418 130.316 112.51 126.079 104.706 126.079C96.9009 126.079 93.3731 130.316 92.5848 132.434V136.303H110.618C104.233 136.303 102.439 142.75 102.341 145.974V183H116.531C116.531 177.75 120.433 167.25 134.86 167.25C149.286 167.25 153.583 177.75 154.075 183H169.448V172.224C169.35 171.118 170.099 168.908 173.883 168.908C177.667 168.908 178.613 171.118 178.613 172.224V183H192.803C192.803 155.389 192.803 143.415 192.803 121.105C192.803 84.7774 143.433 83.5467 118.896 83.5467V89.0526C118.107 88.2237 112.284 83.9519 110.629 85.9414C108.973 87.9309 116.728 94.1184 118.896 95.4079ZM128.947 105.079C130.743 105.079 132.199 103.718 132.199 102.039C132.199 100.361 130.743 99 128.947 99C127.151 99 125.695 100.361 125.695 102.039C125.695 103.718 127.151 105.079 128.947 105.079Z" fill="url(#paint2_radial_229_2929)"/>
<path fill-rule="evenodd" clip-rule="evenodd" d="M118.885 95.3459V119.385H128.936L137.51 109.714C139.481 110.083 154.075 112.926 154.075 121.105C154.075 129.284 150.134 132.066 148.163 132.434H118.896C117.418 130.316 112.51 126.079 104.705 126.079C96.9009 126.079 93.3731 130.316 92.5847 132.434V136.303H110.618C104.232 136.303 102.439 142.75 102.34 145.974V183H116.531C116.531 177.75 120.433 167.25 134.86 167.25C149.286 167.25 153.583 177.75 154.075 183H169.448V172.224C169.35 171.118 170.099 168.908 173.883 168.908C177.667 168.908 178.613 171.118 178.613 172.224V183H192.803C192.803 155.389 192.803 143.415 192.803 121.105C192.803 84.7774 143.422 83.4846 118.885 83.4846V88.9906C118.097 88.1617 112.274 83.8899 110.618 85.8794C108.963 87.8688 116.717 94.0564 118.885 95.3459ZM128.936 105.017C130.732 105.017 132.188 103.656 132.188 101.977C132.188 100.299 130.732 98.938 128.936 98.938C127.14 98.938 125.685 100.299 125.685 101.977C125.685 103.656 127.14 105.017 128.936 105.017Z" fill="white"/>
<path d="M362.936 183.23H210.896V3.57088H362.936V39.7708H251.118V74.8982H358.913V110.83H251.118V147.03H362.936V183.23Z" fill="white"/>
<path d="M421.329 183.23H381.107V3.57088H424.01L488.366 88.5737L513.035 126.383H515.985L514.108 90.1826V3.57088H554.33V183.23H511.427L445.194 97.4226L422.401 63.636H419.72L421.329 96.6181V183.23Z" fill="white"/>
<path d="M608.653 183.23H563.604L642.172 3.57088H699.555L778.659 183.23H732.537L715.644 143.544H625.815L608.653 183.23ZM658.26 68.1945L641.367 107.344H700.091L683.198 68.1945L672.204 40.3071H669.255L658.26 68.1945Z" fill="white"/>
<path d="M828.264 183.23H788.042V3.57088H887.257C931.501 3.57088 956.707 23.1457 956.707 57.4686C956.707 86.6967 939.813 104.126 906.027 107.344V109.489C922.116 113.78 928.283 122.36 934.987 134.963L960.997 183.23H914.34L889.67 136.572C882.43 122.628 875.726 118.07 854.811 118.07H828.264V183.23ZM828.264 39.7708V87.7693H886.988C906.027 87.7693 914.608 82.4063 914.608 63.636C914.608 45.9382 906.027 39.7708 886.988 39.7708H828.264Z" fill="white"/>
<path d="M1013.92 183.23H973.703V3.57088H1013.92V183.23Z" fill="white"/>
<path d="M1116.5 185.911C1062.06 185.911 1031.49 164.46 1031.49 122.628V121.02H1071.71V125.846C1071.71 142.471 1080.03 149.175 1116.5 149.175C1148.67 149.175 1156.18 144.348 1156.18 132.282C1156.18 121.288 1150.01 117.266 1131.51 114.048L1081.1 106.808C1048.92 101.713 1029.88 85.6241 1029.88 56.396C1029.88 29.3131 1051.87 0.889404 1112.21 0.889404C1167.44 0.889404 1193.19 26.3634 1193.19 64.1723V65.7812H1152.7V62.0271C1152.7 44.8656 1143.85 37.6256 1108.18 37.6256C1079.22 37.6256 1070.37 43.2567 1070.37 54.7871C1070.37 65.2449 1076.27 68.9989 1091.29 71.6804L1141.7 79.7248C1181.92 86.1604 1196.4 105.735 1196.4 130.405C1196.4 159.633 1173.61 185.911 1116.5 185.911Z" fill="white"/>
<path d="M1364.82 183.23H1212.78V3.57088H1364.82V39.7708H1253.01V74.8982H1360.8V110.83H1253.01V147.03H1364.82V183.23Z" fill="white"/>
<defs>
<radialGradient id="paint0_radial_229_2929" cx="0" cy="0" r="1" gradientUnits="userSpaceOnUse" gradientTransform="translate(168.451 86.4155) rotate(129.787) scale(144.634 289.861)">
<stop stop-color="#C272FF"/>
<stop offset="0.664532" stop-color="white"/>
</radialGradient>
<radialGradient id="paint1_radial_229_2929" cx="0" cy="0" r="1" gradientUnits="userSpaceOnUse" gradientTransform="translate(168.451 86.4155) rotate(129.787) scale(144.634 289.861)">
<stop stop-color="#C272FF"/>
<stop offset="0.664532" stop-color="white"/>
</radialGradient>
<radialGradient id="paint2_radial_229_2929" cx="0" cy="0" r="1" gradientUnits="userSpaceOnUse" gradientTransform="translate(168.451 86.4155) rotate(129.787) scale(144.634 289.861)">
<stop stop-color="#C272FF"/>
<stop offset="0.664532" stop-color="white"/>
</radialGradient>
</defs>
</svg>
