<svg width="145" height="20" viewBox="0 0 145 20" fill="none" xmlns="http://www.w3.org/2000/svg">
<path d="M38.7748 19.6271H22.6646V0.590283H38.7748V4.42606H26.9265V8.14818H38.3486V11.9555H26.9265V15.7913H38.7748V19.6271Z" fill="white"/>
<path d="M44.9622 19.6271H40.7002V0.590283H45.2463L52.0655 9.59725L54.6795 13.6035H54.9921L54.7932 9.76773V0.590283H59.0551V19.6271H54.509L47.491 10.5349L45.0759 6.95483H44.7917L44.9622 10.4496V19.6271Z" fill="white"/>
<path d="M64.8112 19.6271H60.0378L68.3629 0.590283H74.4433L82.8252 19.6271H77.9381L76.1481 15.4219H66.6297L64.8112 19.6271ZM70.0677 7.43785L68.2776 11.5862H74.5001L72.7101 7.43785L71.5451 4.48288H71.2326L70.0677 7.43785Z" fill="white"/>
<path d="M88.0814 19.6271H83.8194V0.590283H94.3323C99.0204 0.590283 101.691 2.66444 101.691 6.30132C101.691 9.39836 99.9012 11.2452 96.3212 11.5862V11.8135C98.026 12.2681 98.6795 13.1773 99.3898 14.5127L102.146 19.6271H97.202L94.588 14.6832C93.8208 13.2057 93.1105 12.7227 90.8943 12.7227H88.0814V19.6271ZM88.0814 4.42606V9.51201H94.3038C96.3212 9.51201 97.2304 8.94375 97.2304 6.95483C97.2304 5.07956 96.3212 4.42606 94.3038 4.42606H88.0814Z" fill="white"/>
<path d="M107.754 19.6271H103.492V0.590283H107.754V19.6271Z" fill="white"/>
<path d="M118.623 19.9112C112.855 19.9112 109.616 17.6382 109.616 13.2057V13.0352H113.878V13.5467C113.878 15.3083 114.758 16.0186 118.623 16.0186C122.032 16.0186 122.828 15.5072 122.828 14.2286C122.828 13.0637 122.174 12.6375 120.214 12.2965L114.872 11.5293C111.462 10.9895 109.445 9.2847 109.445 6.18767C109.445 3.31795 111.775 0.306152 118.168 0.306152C124.021 0.306152 126.749 3.0054 126.749 7.01165V7.18213H122.458V6.78435C122.458 4.96591 121.521 4.19875 117.742 4.19875C114.673 4.19875 113.736 4.79543 113.736 6.01719C113.736 7.1253 114.361 7.52309 115.952 7.80722L121.293 8.65961C125.555 9.34153 127.09 11.4157 127.09 14.0297C127.09 17.1267 124.675 19.9112 118.623 19.9112Z" fill="white"/>
<path d="M144.936 19.6271H128.825V0.590283H144.936V4.42606H133.087V8.14818H144.509V11.9555H133.087V15.7913H144.936V19.6271Z" fill="white"/>
<path d="M9.53424 19.6271C3.62935 19.6271 0 15.7586 0 9.81355C0 3.86853 4.09022 0 10.7152 0C16.7641 0 20.7921 2.77277 20.7921 7.35242V9.81355C19.7609 8.52229 17.5015 8.00579 15.8257 8.02064C15.8257 5.02816 14.3158 4.09609 10.6 4.09609C6.22174 4.09609 4.57989 5.57523 4.57989 9.81355C4.57989 14.0519 5.75021 15.531 9.98445 15.531V19.6271C8.40612 19.6271 11.2734 19.6271 9.53424 19.6271Z" fill="url(#paint0_radial_72_106)"/>
<path d="M15.4998 19.6271C15.4998 19.3979 15.4024 19.1781 15.2291 19.016C15.0557 18.854 14.8205 18.7629 14.5753 18.7629C14.3301 18.7629 14.0949 18.854 13.9215 19.016C13.7482 19.1781 13.6508 19.3979 13.6508 19.6271H15.4998Z" fill="url(#paint1_radial_72_106)"/>
<path fill-rule="evenodd" clip-rule="evenodd" d="M13.9696 10.1811V12.7735H15.0535L15.9781 11.7306C16.1906 11.7703 16.6157 12.0703 16.6157 12.9523C16.6157 13.8343 16.1906 14.1343 15.9781 14.174H12.8218C12.6624 13.9456 12.1332 13.4887 11.2916 13.4887C10.4499 13.4887 10.0695 13.9456 9.98445 14.174V14.5912H11.9292C11.2406 14.5912 11.0471 15.2865 11.0365 15.6341V19.6271H12.5668C12.5668 19.0609 12.9876 17.9286 14.5434 17.9286C16.0992 17.9286 16.5625 19.0609 16.6157 19.6271H18.2735V18.465C18.2629 18.3458 18.3436 18.1074 18.7517 18.1074C19.1598 18.1074 19.2618 18.3458 19.2618 18.465V19.6271H20.7921C20.7921 16.6495 20.7921 15.3582 20.7921 12.9523C20.7921 9.03465 16.6157 8.90193 13.9696 8.90193V9.4957C13.8845 9.40631 13.2566 8.94563 13.078 9.16018C12.8995 9.37473 13.7358 10.042 13.9696 10.1811ZM15.0535 11.224C15.2472 11.224 15.4042 11.0772 15.4042 10.8962C15.4042 10.7152 15.2472 10.5684 15.0535 10.5684C14.8598 10.5684 14.7028 10.7152 14.7028 10.8962C14.7028 11.0772 14.8598 11.224 15.0535 11.224Z" fill="url(#paint2_radial_72_106)"/>
<path fill-rule="evenodd" clip-rule="evenodd" d="M13.9695 10.1811V12.7736H15.0534L15.978 11.7306C16.1905 11.7703 16.6156 12.0703 16.6156 12.9523C16.6156 13.8344 16.1905 14.1343 15.978 14.1741H12.8218C12.6624 13.9456 12.1331 13.4887 11.2915 13.4887C10.4498 13.4887 10.0694 13.9456 9.98438 14.1741V14.5912H11.9291C11.2405 14.5912 11.0471 15.2865 11.0364 15.6342V19.6271H12.5667C12.5667 19.061 12.9876 17.9286 14.5433 17.9286C16.0991 17.9286 16.5625 19.061 16.6156 19.6271H18.2734V18.465C18.2628 18.3458 18.3436 18.1074 18.7516 18.1074C19.1597 18.1074 19.2617 18.3458 19.2617 18.465V19.6271H20.792C20.792 16.6495 20.792 15.3583 20.792 12.9523C20.792 9.0347 16.6156 8.90198 13.9695 8.90198V9.49575C13.8845 9.40635 13.2565 8.94568 13.078 9.16023C12.8994 9.37478 13.7357 10.042 13.9695 10.1811ZM15.0534 11.224C15.2471 11.224 15.4041 11.0773 15.4041 10.8963C15.4041 10.7152 15.2471 10.5685 15.0534 10.5685C14.8598 10.5685 14.7028 10.7152 14.7028 10.8963C14.7028 11.0773 14.8598 11.224 15.0534 11.224Z" fill="white"/>
<defs>
<radialGradient id="paint0_radial_72_106" cx="0" cy="0" r="1" gradientUnits="userSpaceOnUse" gradientTransform="translate(18.4726 8.42131) rotate(121.485) scale(16.6444 33.3571)">
<stop stop-color="#C272FF"/>
<stop offset="0.664532" stop-color="white"/>
</radialGradient>
<radialGradient id="paint1_radial_72_106" cx="0" cy="0" r="1" gradientUnits="userSpaceOnUse" gradientTransform="translate(18.4726 8.42131) rotate(121.485) scale(16.6444 33.3571)">
<stop stop-color="#C272FF"/>
<stop offset="0.664532" stop-color="white"/>
</radialGradient>
<radialGradient id="paint2_radial_72_106" cx="0" cy="0" r="1" gradientUnits="userSpaceOnUse" gradientTransform="translate(18.4726 8.42131) rotate(121.485) scale(16.6444 33.3571)">
<stop stop-color="#C272FF"/>
<stop offset="0.664532" stop-color="white"/>
</radialGradient>
</defs>
</svg>
