<svg width="34" height="34" viewBox="0 0 34 34" fill="none" xmlns="http://www.w3.org/2000/svg">
<path d="M17 0C7.61116 0 0 7.61116 0 17C0 26.3888 7.61116 34 17 34C23.3016 34 28.7977 30.5687 31.7339 25.4751L25.7491 22.0323C24.0045 25.0581 20.7436 27.1 17 27.1C11.4219 27.1 6.90002 22.5781 6.90002 17C6.90002 11.4219 11.4219 6.90002 17 6.90002C19.391 6.90002 21.5824 7.73644 23.3107 9.12671L18.8469 12.3018L34 17.3548V1.51903L29.0652 5.03027C25.9852 1.92531 21.719 0 17 0Z" fill="black"/>
<path d="M17 0C7.61116 0 0 7.61116 0 17C0 26.3888 7.61116 34 17 34C23.3016 34 28.7977 30.5687 31.7339 25.4751L25.7491 22.0323C24.0045 25.0581 20.7436 27.1 17 27.1C11.4219 27.1 6.90002 22.5781 6.90002 17C6.90002 11.4219 11.4219 6.90002 17 6.90002C19.391 6.90002 21.5824 7.73644 23.3107 9.12671L18.8469 12.3018L34 17.3548V1.51903L29.0652 5.03027C25.9852 1.92531 21.719 0 17 0Z" fill="url(#paint0_linear_7_97)"/>
<defs>
<linearGradient id="paint0_linear_7_97" x1="17.4352" y1="0" x2="17.4352" y2="30.5424" gradientUnits="userSpaceOnUse">
<stop stop-color="#F3EBFE"/>
<stop offset="1" stop-color="#D6B3FF"/>
</linearGradient>
</defs>
</svg>
