<svg width="38" height="38" viewBox="0 0 38 38" fill="none" xmlns="http://www.w3.org/2000/svg">
<path fill-rule="evenodd" clip-rule="evenodd" d="M2 0C0.895434 0 3.81416e-06 0.89543 3.81416e-06 2L2 0ZM3.81416e-06 2V29.9556V2ZM37.4142 6.25245C38.1953 7.0335 38.1953 8.29983 37.4142 9.08088L27.4163 19.0788C26.6871 19.8078 25.6979 20.2176 24.6667 20.2176C23.6355 20.2176 22.6465 19.808 21.9172 19.079L19 16.1618L10.9698 24.192C10.1887 24.973 8.92239 24.973 8.14135 24.192C7.3603 23.4109 7.3603 22.1446 8.14135 21.3636L16.2503 13.2546C16.9796 12.5255 17.9688 12.1157 19 12.1157C20.0312 12.1157 21.0202 12.5253 21.7494 13.2543L24.6667 16.1716L34.5858 6.25245C35.3668 5.4714 36.6332 5.4714 37.4142 6.25245ZM3.81416e-06 29.9556L1.90681e-06 30.0317L3.81416e-06 29.9556ZM1.90681e-06 30.0317C-3.57633e-05 31.0244 -6.84261e-05 31.8874 0.0581191 32.5995L1.90681e-06 30.0317ZM0.0581191 32.5995C0.119702 33.3532 0.256292 34.1121 0.629639 34.8451L0.0581191 32.5995ZM0.629639 34.8451C1.18357 35.9322 2.06756 36.8163 3.15467 37.3702L0.629639 34.8451ZM3.15467 37.3702C3.88766 37.7436 4.64682 37.8803 5.40052 37.9419L3.15467 37.3702ZM5.40052 37.9419C6.11268 38.0001 6.97565 38 7.96841 38L5.40052 37.9419ZM7.96841 38H8.04445H7.96841ZM5.72627 33.9552C6.25587 33.9984 6.95367 34 8.04445 34H36C37.1046 34 38 34.8954 38 36C38 37.1046 37.1046 38 36 38H8.04445" fill="black"/>
<path fill-rule="evenodd" clip-rule="evenodd" d="M2 0C0.895434 0 3.81416e-06 0.89543 3.81416e-06 2L2 0ZM3.81416e-06 2V29.9556V2ZM37.4142 6.25245C38.1953 7.0335 38.1953 8.29983 37.4142 9.08088L27.4163 19.0788C26.6871 19.8078 25.6979 20.2176 24.6667 20.2176C23.6355 20.2176 22.6465 19.808 21.9172 19.079L19 16.1618L10.9698 24.192C10.1887 24.973 8.92239 24.973 8.14135 24.192C7.3603 23.4109 7.3603 22.1446 8.14135 21.3636L16.2503 13.2546C16.9796 12.5255 17.9688 12.1157 19 12.1157C20.0312 12.1157 21.0202 12.5253 21.7494 13.2543L24.6667 16.1716L34.5858 6.25245C35.3668 5.4714 36.6332 5.4714 37.4142 6.25245ZM3.81416e-06 29.9556L1.90681e-06 30.0317L3.81416e-06 29.9556ZM1.90681e-06 30.0317C-3.57633e-05 31.0244 -6.84261e-05 31.8874 0.0581191 32.5995L1.90681e-06 30.0317ZM0.0581191 32.5995C0.119702 33.3532 0.256292 34.1121 0.629639 34.8451L0.0581191 32.5995ZM0.629639 34.8451C1.18357 35.9322 2.06756 36.8163 3.15467 37.3702L0.629639 34.8451ZM3.15467 37.3702C3.88766 37.7436 4.64682 37.8803 5.40052 37.9419L3.15467 37.3702ZM5.40052 37.9419C6.11268 38.0001 6.97565 38 7.96841 38L5.40052 37.9419ZM7.96841 38H8.04445H7.96841ZM5.72627 33.9552C6.25587 33.9984 6.95367 34 8.04445 34H36C37.1046 34 38 34.8954 38 36C38 37.1046 37.1046 38 36 38H8.04445" fill="url(#paint0_linear_7_104)"/>
<path d="M4.04483 32.2737C4.00156 31.7441 4 31.0463 4 29.9556V22.762L2 0L3.81416e-06 2V29.9556L1.90681e-06 30.0317L0.0581191 32.5995L0.629639 34.8451L3.15467 37.3702L5.40052 37.9419L7.96841 38H8.04445L5.72627 33.9552C4.70728 33.9213 4.28003 33.3238 4.19378 33.0293C4.15532 32.9537 4.08614 32.7793 4.04483 32.2737Z" fill="black"/>
<path d="M4.04483 32.2737C4.00156 31.7441 4 31.0463 4 29.9556V22.762L2 0L3.81416e-06 2V29.9556L1.90681e-06 30.0317L0.0581191 32.5995L0.629639 34.8451L3.15467 37.3702L5.40052 37.9419L7.96841 38H8.04445L5.72627 33.9552C4.70728 33.9213 4.28003 33.3238 4.19378 33.0293C4.15532 32.9537 4.08614 32.7793 4.04483 32.2737Z" fill="url(#paint1_linear_7_104)"/>
<path d="M4 2C4 0.89543 3.10457 0 2 0L4 22.762V2Z" fill="black"/>
<path d="M4 2C4 0.89543 3.10457 0 2 0L4 22.762V2Z" fill="url(#paint2_linear_7_104)"/>
<defs>
<linearGradient id="paint0_linear_7_104" x1="19.4863" y1="0" x2="19.4864" y2="34.1356" gradientUnits="userSpaceOnUse">
<stop stop-color="#F3EBFE"/>
<stop offset="1" stop-color="#D6B3FF"/>
</linearGradient>
<linearGradient id="paint1_linear_7_104" x1="19.4863" y1="0" x2="19.4864" y2="34.1356" gradientUnits="userSpaceOnUse">
<stop stop-color="#F3EBFE"/>
<stop offset="1" stop-color="#D6B3FF"/>
</linearGradient>
<linearGradient id="paint2_linear_7_104" x1="19.4863" y1="0" x2="19.4864" y2="34.1356" gradientUnits="userSpaceOnUse">
<stop stop-color="#F3EBFE"/>
<stop offset="1" stop-color="#D6B3FF"/>
</linearGradient>
</defs>
</svg>
