<svg width="36" height="28" viewBox="0 0 36 28" fill="none" xmlns="http://www.w3.org/2000/svg">
<path d="M15.5202 20.384C16.1231 20.9867 16.91 21.2633 17.8809 21.214C18.8545 21.1633 19.5733 20.82 20.0375 20.184L27.7216 9.466C27.995 9.07133 27.9716 8.714 27.6516 8.394C27.3315 8.074 26.9734 8.05 26.5773 8.322L15.8203 15.97C15.1575 16.4153 14.7847 17.1033 14.702 18.034C14.6193 18.9647 14.8921 19.748 15.5202 20.384ZM4.20115 28C3.83171 28 3.49162 27.906 3.18087 27.718C2.86878 27.5287 2.60605 27.2713 2.39265 26.946C1.6031 25.5847 1.00694 24.146 0.604165 22.63C0.201388 21.114 0 19.5707 0 18C0 15.5093 0.472796 13.1693 1.41839 10.98C2.36398 8.79067 3.647 6.886 5.26744 5.266C6.88788 3.646 8.79307 2.36333 10.983 1.418C13.1729 0.472667 15.5136 0 18.0049 0C20.4816 0 22.8069 0.465333 24.9808 1.396C27.1548 2.32533 29.0566 3.592 30.6864 5.196C32.3175 6.80133 33.6085 8.68 34.5594 10.832C35.5117 12.9853 35.9918 15.298 35.9998 17.77C36.0065 19.4287 35.8104 21.0367 35.4117 22.594C35.0129 24.1527 34.4107 25.6547 33.6052 27.1C33.4185 27.4253 33.1651 27.6567 32.845 27.794C32.5262 27.9313 32.1768 28 31.7967 28H4.20115Z" fill="black"/>
<path d="M15.5202 20.384C16.1231 20.9867 16.91 21.2633 17.8809 21.214C18.8545 21.1633 19.5733 20.82 20.0375 20.184L27.7216 9.466C27.995 9.07133 27.9716 8.714 27.6516 8.394C27.3315 8.074 26.9734 8.05 26.5773 8.322L15.8203 15.97C15.1575 16.4153 14.7847 17.1033 14.702 18.034C14.6193 18.9647 14.8921 19.748 15.5202 20.384ZM4.20115 28C3.83171 28 3.49162 27.906 3.18087 27.718C2.86878 27.5287 2.60605 27.2713 2.39265 26.946C1.6031 25.5847 1.00694 24.146 0.604165 22.63C0.201388 21.114 0 19.5707 0 18C0 15.5093 0.472796 13.1693 1.41839 10.98C2.36398 8.79067 3.647 6.886 5.26744 5.266C6.88788 3.646 8.79307 2.36333 10.983 1.418C13.1729 0.472667 15.5136 0 18.0049 0C20.4816 0 22.8069 0.465333 24.9808 1.396C27.1548 2.32533 29.0566 3.592 30.6864 5.196C32.3175 6.80133 33.6085 8.68 34.5594 10.832C35.5117 12.9853 35.9918 15.298 35.9998 17.77C36.0065 19.4287 35.8104 21.0367 35.4117 22.594C35.0129 24.1527 34.4107 25.6547 33.6052 27.1C33.4185 27.4253 33.1651 27.6567 32.845 27.794C32.5262 27.9313 32.1768 28 31.7967 28H4.20115Z" fill="url(#paint0_linear_7_93)"/>
<defs>
<linearGradient id="paint0_linear_7_93" x1="18.4608" y1="0" x2="18.4608" y2="25.1525" gradientUnits="userSpaceOnUse">
<stop stop-color="#F3EBFE"/>
<stop offset="1" stop-color="#D6B3FF"/>
</linearGradient>
</defs>
</svg>
