<svg width="11" height="12" viewBox="0 0 11 12" fill="none" xmlns="http://www.w3.org/2000/svg">
<path d="M10.6428 2.28351C10.6428 2.65792 10.3454 3.0032 9.84409 3.28192C9.23881 3.6168 8.33608 3.85392 7.30024 3.92464C7.22328 3.8872 7.14632 3.85184 7.0652 3.82064C6.24567 3.47744 5.15575 3.28192 3.98678 3.28192C3.81414 3.28192 3.64566 3.28608 3.47718 3.2944L3.4543 3.28192C2.95302 3.0032 2.65558 2.65792 2.65558 2.28351C2.65558 1.36415 4.44439 0.619507 6.6492 0.619507C8.85401 0.619507 10.6428 1.36415 10.6428 2.28351ZM3.33574 3.9704C3.5479 3.95584 3.7663 3.94752 3.98678 3.94752C5.28055 3.94752 6.42872 4.20336 7.1588 4.60065C7.67464 4.88145 7.9804 5.23089 7.9804 5.61153C7.9804 5.69473 7.96584 5.77585 7.93672 5.85489C7.84104 6.12945 7.58312 6.38113 7.20872 6.5933C7.20664 6.59538 7.20248 6.59538 7.2004 6.59746C7.19416 6.60162 7.18792 6.6037 7.18168 6.60786C6.45368 7.01138 5.29303 7.27346 3.98678 7.27346C2.7471 7.27346 1.63845 7.03842 0.904208 6.66818C0.864688 6.64946 0.827248 6.62866 0.789808 6.60786C0.290605 6.33121 -0.00683594 5.98593 -0.00683594 5.61153C-0.00683594 4.88769 1.10389 4.26992 2.65558 4.0432C2.87398 4.012 3.1007 3.98704 3.33574 3.9704ZM8.64601 5.61153C8.64601 5.15601 8.42552 4.78161 8.14472 4.50081C8.73337 4.40929 9.27209 4.26368 9.72969 4.0744C10.0687 3.93296 10.3849 3.75824 10.6428 3.544V4.28032C10.6428 4.68177 10.2996 5.05201 9.73177 5.33905C9.42809 5.49297 9.05785 5.62401 8.64185 5.72385C8.64393 5.68641 8.64601 5.65105 8.64601 5.61361V5.61153ZM7.9804 7.60834C7.9804 7.98274 7.68296 8.32802 7.18168 8.60675C7.14424 8.62755 7.1068 8.64627 7.06728 8.66707C6.33511 9.03731 5.22647 9.27235 3.98678 9.27235C2.68054 9.27235 1.51989 9.01027 0.791888 8.60675C0.290606 8.32802 -0.00683594 7.98274 -0.00683594 7.60834V6.87202C0.253165 7.08626 0.567247 7.26098 0.906289 7.40242C1.72789 7.74562 2.81782 7.94114 3.98678 7.94114C5.15575 7.94114 6.24567 7.74562 7.06728 7.40242C7.22952 7.33586 7.38552 7.2589 7.5332 7.1757C7.66008 7.10498 7.77864 7.02594 7.89096 6.94274C7.92216 6.91986 7.95128 6.8949 7.9804 6.87202V7.60834ZM8.64601 7.60834V6.40402C9.04121 6.31665 9.40521 6.20641 9.72969 6.07121C10.0687 5.92977 10.3849 5.75505 10.6428 5.54081V6.27713C10.6428 6.49554 10.5388 6.71394 10.3329 6.91986C9.99385 7.2589 9.39689 7.53762 8.64185 7.71858C8.64393 7.68322 8.64601 7.64578 8.64601 7.60834ZM3.98678 9.93795C5.15575 9.93795 6.24567 9.74243 7.06728 9.39923C7.40632 9.25779 7.72248 9.08307 7.9804 8.86883V9.60515C7.9804 10.5245 6.19159 11.2692 3.98678 11.2692C1.78197 11.2692 -0.00683594 10.5245 -0.00683594 9.60515V8.86883C0.253165 9.08307 0.567247 9.25779 0.906289 9.39923C1.72789 9.74243 2.81782 9.93795 3.98678 9.93795Z" fill="white"/>
</svg>
