<svg width="11" height="13" viewBox="0 0 11 13" fill="none" xmlns="http://www.w3.org/2000/svg">
<path d="M2.0625 12.375C1.68438 12.375 1.36079 12.2405 1.09175 11.9714C0.82271 11.7024 0.68796 11.3786 0.687502 11V2.0625C0.492711 2.0625 0.329544 1.9965 0.198002 1.8645C0.0664608 1.7325 0.000460704 1.56933 2.37069e-06 1.375C-0.000455962 1.18067 0.0655441 1.0175 0.198002 0.8855C0.330461 0.7535 0.493627 0.6875 0.687502 0.6875H3.4375C3.4375 0.492708 3.5035 0.329542 3.6355 0.198C3.7675 0.0664584 3.93067 0.000458333 4.125 0H6.875C7.06979 0 7.23319 0.066 7.36519 0.198C7.49719 0.33 7.56296 0.493166 7.5625 0.6875H10.3125C10.5073 0.6875 10.6707 0.7535 10.8027 0.8855C10.9347 1.0175 11.0005 1.18067 11 1.375C10.9995 1.56933 10.9335 1.73273 10.802 1.86519C10.6705 1.99764 10.5073 2.06342 10.3125 2.0625V11C10.3125 11.3781 10.178 11.7019 9.90894 11.9714C9.63989 12.2409 9.31608 12.3755 8.9375 12.375H2.0625ZM4.125 9.625C4.31979 9.625 4.48319 9.559 4.61519 9.427C4.74719 9.295 4.81296 9.13183 4.8125 8.9375V4.125C4.8125 3.93021 4.7465 3.76704 4.6145 3.6355C4.4825 3.50396 4.31933 3.43796 4.125 3.4375C3.93067 3.43704 3.7675 3.50304 3.6355 3.6355C3.5035 3.76796 3.4375 3.93112 3.4375 4.125V8.9375C3.4375 9.13229 3.5035 9.29568 3.6355 9.42768C3.7675 9.55968 3.93067 9.62545 4.125 9.625ZM6.875 9.625C7.06979 9.625 7.23319 9.559 7.36519 9.427C7.49719 9.295 7.56296 9.13183 7.5625 8.9375V4.125C7.5625 3.93021 7.4965 3.76704 7.3645 3.6355C7.2325 3.50396 7.06933 3.43796 6.875 3.4375C6.68067 3.43704 6.5175 3.50304 6.3855 3.6355C6.2535 3.76796 6.1875 3.93112 6.1875 4.125V8.9375C6.1875 9.13229 6.2535 9.29568 6.3855 9.42768C6.5175 9.55968 6.68067 9.62545 6.875 9.625Z" fill="black"/>
<path d="M2.0625 12.375C1.68438 12.375 1.36079 12.2405 1.09175 11.9714C0.82271 11.7024 0.68796 11.3786 0.687502 11V2.0625C0.492711 2.0625 0.329544 1.9965 0.198002 1.8645C0.0664608 1.7325 0.000460704 1.56933 2.37069e-06 1.375C-0.000455962 1.18067 0.0655441 1.0175 0.198002 0.8855C0.330461 0.7535 0.493627 0.6875 0.687502 0.6875H3.4375C3.4375 0.492708 3.5035 0.329542 3.6355 0.198C3.7675 0.0664584 3.93067 0.000458333 4.125 0H6.875C7.06979 0 7.23319 0.066 7.36519 0.198C7.49719 0.33 7.56296 0.493166 7.5625 0.6875H10.3125C10.5073 0.6875 10.6707 0.7535 10.8027 0.8855C10.9347 1.0175 11.0005 1.18067 11 1.375C10.9995 1.56933 10.9335 1.73273 10.802 1.86519C10.6705 1.99764 10.5073 2.06342 10.3125 2.0625V11C10.3125 11.3781 10.178 11.7019 9.90894 11.9714C9.63989 12.2409 9.31608 12.3755 8.9375 12.375H2.0625ZM4.125 9.625C4.31979 9.625 4.48319 9.559 4.61519 9.427C4.74719 9.295 4.81296 9.13183 4.8125 8.9375V4.125C4.8125 3.93021 4.7465 3.76704 4.6145 3.6355C4.4825 3.50396 4.31933 3.43796 4.125 3.4375C3.93067 3.43704 3.7675 3.50304 3.6355 3.6355C3.5035 3.76796 3.4375 3.93112 3.4375 4.125V8.9375C3.4375 9.13229 3.5035 9.29568 3.6355 9.42768C3.7675 9.55968 3.93067 9.62545 4.125 9.625ZM6.875 9.625C7.06979 9.625 7.23319 9.559 7.36519 9.427C7.49719 9.295 7.56296 9.13183 7.5625 8.9375V4.125C7.5625 3.93021 7.4965 3.76704 7.3645 3.6355C7.2325 3.50396 7.06933 3.43796 6.875 3.4375C6.68067 3.43704 6.5175 3.50304 6.3855 3.6355C6.2535 3.76796 6.1875 3.93112 6.1875 4.125V8.9375C6.1875 9.13229 6.2535 9.29568 6.3855 9.42768C6.5175 9.55968 6.68067 9.62545 6.875 9.625Z" fill="#5B3B81"/>
</svg>
