<svg width="12" height="14" viewBox="0 0 12 14" fill="none" xmlns="http://www.w3.org/2000/svg">
<path d="M2.25 14C1.8375 14 1.4845 13.8478 1.191 13.5434C0.897502 13.2391 0.750502 12.8727 0.750002 12.4444V2.33333C0.537502 2.33333 0.359502 2.25867 0.216003 2.10933C0.0725026 1.96 0.000502586 1.77541 2.5862e-06 1.55556C-0.000497414 1.3357 0.0715026 1.15111 0.216003 1.00178C0.360503 0.852444 0.538502 0.777778 0.750002 0.777778H3.75C3.75 0.557407 3.822 0.372815 3.966 0.224C4.11 0.0751853 4.288 0.000518518 4.5 0H7.5C7.7125 0 7.89075 0.0746667 8.03475 0.224C8.17875 0.373333 8.2505 0.557926 8.25 0.777778H11.25C11.4625 0.777778 11.6407 0.852444 11.7847 1.00178C11.9287 1.15111 12.0005 1.3357 12 1.55556C11.9995 1.77541 11.9275 1.96026 11.784 2.11011C11.6405 2.25996 11.4625 2.33437 11.25 2.33333V12.4444C11.25 12.8722 11.1032 13.2386 10.8097 13.5434C10.5162 13.8483 10.163 14.0005 9.75 14H2.25ZM4.5 10.8889C4.7125 10.8889 4.89075 10.8142 5.03475 10.6649C5.17875 10.5156 5.2505 10.331 5.25 10.1111V4.66667C5.25 4.4463 5.178 4.2617 5.034 4.11289C4.89 3.96407 4.712 3.88941 4.5 3.88889C4.288 3.88837 4.11 3.96304 3.966 4.11289C3.822 4.26274 3.75 4.44733 3.75 4.66667V10.1111C3.75 10.3315 3.822 10.5163 3.966 10.6657C4.11 10.815 4.288 10.8894 4.5 10.8889ZM7.5 10.8889C7.7125 10.8889 7.89075 10.8142 8.03475 10.6649C8.17875 10.5156 8.2505 10.331 8.25 10.1111V4.66667C8.25 4.4463 8.178 4.2617 8.034 4.11289C7.89 3.96407 7.712 3.88941 7.5 3.88889C7.288 3.88837 7.11 3.96304 6.966 4.11289C6.822 4.26274 6.75 4.44733 6.75 4.66667V10.1111C6.75 10.3315 6.822 10.5163 6.966 10.6657C7.11 10.815 7.288 10.8894 7.5 10.8889Z" fill="black"/>
<path d="M2.25 14C1.8375 14 1.4845 13.8478 1.191 13.5434C0.897502 13.2391 0.750502 12.8727 0.750002 12.4444V2.33333C0.537502 2.33333 0.359502 2.25867 0.216003 2.10933C0.0725026 1.96 0.000502586 1.77541 2.5862e-06 1.55556C-0.000497414 1.3357 0.0715026 1.15111 0.216003 1.00178C0.360503 0.852444 0.538502 0.777778 0.750002 0.777778H3.75C3.75 0.557407 3.822 0.372815 3.966 0.224C4.11 0.0751853 4.288 0.000518518 4.5 0H7.5C7.7125 0 7.89075 0.0746667 8.03475 0.224C8.17875 0.373333 8.2505 0.557926 8.25 0.777778H11.25C11.4625 0.777778 11.6407 0.852444 11.7847 1.00178C11.9287 1.15111 12.0005 1.3357 12 1.55556C11.9995 1.77541 11.9275 1.96026 11.784 2.11011C11.6405 2.25996 11.4625 2.33437 11.25 2.33333V12.4444C11.25 12.8722 11.1032 13.2386 10.8097 13.5434C10.5162 13.8483 10.163 14.0005 9.75 14H2.25ZM4.5 10.8889C4.7125 10.8889 4.89075 10.8142 5.03475 10.6649C5.17875 10.5156 5.2505 10.331 5.25 10.1111V4.66667C5.25 4.4463 5.178 4.2617 5.034 4.11289C4.89 3.96407 4.712 3.88941 4.5 3.88889C4.288 3.88837 4.11 3.96304 3.966 4.11289C3.822 4.26274 3.75 4.44733 3.75 4.66667V10.1111C3.75 10.3315 3.822 10.5163 3.966 10.6657C4.11 10.815 4.288 10.8894 4.5 10.8889ZM7.5 10.8889C7.7125 10.8889 7.89075 10.8142 8.03475 10.6649C8.17875 10.5156 8.2505 10.331 8.25 10.1111V4.66667C8.25 4.4463 8.178 4.2617 8.034 4.11289C7.89 3.96407 7.712 3.88941 7.5 3.88889C7.288 3.88837 7.11 3.96304 6.966 4.11289C6.822 4.26274 6.75 4.44733 6.75 4.66667V10.1111C6.75 10.3315 6.822 10.5163 6.966 10.6657C7.11 10.815 7.288 10.8894 7.5 10.8889Z" fill="url(#paint0_linear_290_2739)"/>
<defs>
<linearGradient id="paint0_linear_290_2739" x1="6.15358" y1="0" x2="6.15358" y2="12.5763" gradientUnits="userSpaceOnUse">
<stop stop-color="#F3EBFE"/>
<stop offset="1" stop-color="#D6B3FF"/>
</linearGradient>
</defs>
</svg>
