<svg width="9" height="9" viewBox="0 0 9 9" fill="none" xmlns="http://www.w3.org/2000/svg">
<path d="M4.5 6.51094C4.425 6.51094 4.35468 6.49931 4.28906 6.47606C4.22343 6.45281 4.1625 6.41288 4.10625 6.35625L2.08125 4.33125C1.96875 4.21875 1.91475 4.0875 1.91925 3.9375C1.92375 3.7875 1.97775 3.65625 2.08125 3.54375C2.19375 3.43125 2.32744 3.37275 2.48231 3.36825C2.63719 3.36375 2.77069 3.41756 2.88281 3.52969L3.9375 4.58438V0.562502C3.9375 0.403127 3.9915 0.269627 4.0995 0.162002C4.2075 0.054377 4.341 0.00037694 4.5 1.93965e-06C4.659 -0.00037306 4.79268 0.053627 4.90106 0.162002C5.00943 0.270377 5.06325 0.403877 5.0625 0.562502V4.58438L6.11718 3.52969C6.22968 3.41719 6.36337 3.36319 6.51824 3.36769C6.67312 3.37219 6.80662 3.43088 6.91874 3.54375C7.02187 3.65625 7.07587 3.7875 7.08074 3.9375C7.08562 4.0875 7.03162 4.21875 6.91874 4.33125L4.89375 6.35625C4.8375 6.4125 4.77656 6.45244 4.71093 6.47606C4.64531 6.49969 4.575 6.51131 4.5 6.51094ZM1.125 9C0.815624 9 0.550874 8.88994 0.33075 8.66981C0.110625 8.44969 0.000375 8.18475 0 7.875V6.75C0 6.59063 0.054 6.45713 0.162 6.3495C0.27 6.24188 0.4035 6.18788 0.5625 6.1875C0.721499 6.18713 0.855187 6.24113 0.963562 6.3495C1.07194 6.45788 1.12575 6.59137 1.125 6.75V7.875H7.87499V6.75C7.87499 6.59063 7.92899 6.45713 8.03699 6.3495C8.14499 6.24188 8.27849 6.18788 8.43749 6.1875C8.59649 6.18713 8.73018 6.24113 8.83855 6.3495C8.94693 6.45788 9.00074 6.59137 8.99999 6.75V7.875C8.99999 8.18437 8.88993 8.44931 8.66981 8.66981C8.44968 8.89031 8.18474 9.00037 7.87499 9H1.125Z" fill="white"/>
</svg>
