<svg width="15" height="14" viewBox="0 0 15 14" fill="none" xmlns="http://www.w3.org/2000/svg">
<path fill-rule="evenodd" clip-rule="evenodd" d="M10.1676 0.676717C10.6118 0.243416 11.2141 0 11.8421 0C12.4701 0 13.0724 0.243416 13.5166 0.676717L13.6525 0.809312C14.0965 1.24274 14.346 1.83061 14.346 2.44349C14.346 3.05636 14.0965 3.64414 13.6525 4.07757L4.50562 13.0039C4.40444 13.1026 4.27767 13.1727 4.13886 13.2065L0.980965 13.977C0.711932 14.0426 0.427338 13.9657 0.231248 13.7743C0.0351585 13.583 -0.0436697 13.3052 0.0235884 13.0427L0.813061 9.96096C0.847765 9.82549 0.919543 9.70178 1.02072 9.60304L10.1676 0.676717ZM9.47369 3.53304L2.29183 10.5417L1.87452 12.1707L3.54376 11.7634L10.7256 4.75478L9.47369 3.53304ZM12.4002 1.76636L12.536 1.89887L12.4002 1.76636ZM7.10527 13.2296C7.10527 12.8041 7.45873 12.4591 7.89474 12.4591H14.2105C14.6465 12.4591 15 12.8041 15 13.2296C15 13.655 14.6465 14 14.2105 14H7.89474C7.45873 14 7.10527 13.655 7.10527 13.2296Z" fill="black"/>
<path fill-rule="evenodd" clip-rule="evenodd" d="M10.1676 0.676717C10.6118 0.243416 11.2141 0 11.8421 0C12.4701 0 13.0724 0.243416 13.5166 0.676717L13.6525 0.809312C14.0965 1.24274 14.346 1.83061 14.346 2.44349C14.346 3.05636 14.0965 3.64414 13.6525 4.07757L4.50562 13.0039C4.40444 13.1026 4.27767 13.1727 4.13886 13.2065L0.980965 13.977C0.711932 14.0426 0.427338 13.9657 0.231248 13.7743C0.0351585 13.583 -0.0436697 13.3052 0.0235884 13.0427L0.813061 9.96096C0.847765 9.82549 0.919543 9.70178 1.02072 9.60304L10.1676 0.676717ZM9.47369 3.53304L2.29183 10.5417L1.87452 12.1707L3.54376 11.7634L10.7256 4.75478L9.47369 3.53304ZM12.4002 1.76636L12.536 1.89887L12.4002 1.76636ZM7.10527 13.2296C7.10527 12.8041 7.45873 12.4591 7.89474 12.4591H14.2105C14.6465 12.4591 15 12.8041 15 13.2296C15 13.655 14.6465 14 14.2105 14H7.89474C7.45873 14 7.10527 13.655 7.10527 13.2296Z" fill="url(#paint0_linear_290_2738)"/>
<defs>
<linearGradient id="paint0_linear_290_2738" x1="7.69198" y1="0" x2="7.69198" y2="12.5763" gradientUnits="userSpaceOnUse">
<stop stop-color="#F3EBFE"/>
<stop offset="1" stop-color="#D6B3FF"/>
</linearGradient>
</defs>
</svg>
