<svg width="12" height="9" viewBox="0 0 12 9" fill="none" xmlns="http://www.w3.org/2000/svg">
<path fill-rule="evenodd" clip-rule="evenodd" d="M0.0720172 0.5556C0.143726 0.391127 0.265169 0.250551 0.420986 0.151653C0.576802 0.052756 0.759992 -2.02035e-05 0.947384 5.8018e-09H7.26317C8.51945 5.8018e-09 9.72428 0.474106 10.6126 1.31802C11.5009 2.16193 12 3.30653 12 4.5C12 5.69347 11.5009 6.83807 10.6126 7.68198C9.72428 8.52589 8.51945 9 7.26317 9H1.57896C1.32771 9 1.08674 8.90518 0.909073 8.7364C0.731407 8.56761 0.631595 8.3387 0.631595 8.1C0.631595 7.86131 0.731407 7.63239 0.909073 7.4636C1.08674 7.29482 1.32771 7.2 1.57896 7.2H7.26317C8.01694 7.2 8.73984 6.91554 9.27283 6.40919C9.80583 5.90284 10.1053 5.21608 10.1053 4.5C10.1053 3.78392 9.80583 3.09716 9.27283 2.59081C8.73984 2.08446 8.01694 1.8 7.26317 1.8H3.23433L3.82801 2.364C4.0005 2.53382 4.09588 2.7612 4.0936 2.99718C4.09133 3.23316 3.99158 3.45885 3.81585 3.62564C3.64012 3.79242 3.40246 3.88697 3.15406 3.88891C2.90566 3.89085 2.6664 3.80002 2.4878 3.636L0.27728 1.536C0.144892 1.41016 0.0547355 1.24986 0.0182013 1.07536C-0.0183328 0.900863 0.000394519 0.719992 0.0720172 0.5556Z" fill="#5C3A83"/>
</svg>
