<svg width="12" height="9" viewBox="0 0 12 9" fill="none" xmlns="http://www.w3.org/2000/svg">
<path fill-rule="evenodd" clip-rule="evenodd" d="M11.928 8.4444C11.8563 8.60887 11.7348 8.74945 11.579 8.84835C11.4232 8.94724 11.24 9.00002 11.0526 9L4.73683 9C3.48055 9 2.27572 8.5259 1.38739 7.68198C0.499058 6.83807 -1.24274e-06 5.69348 -1.34708e-06 4.5C-1.45141e-06 3.30653 0.499057 2.16193 1.38739 1.31802C2.27572 0.474107 3.48055 7.44794e-07 4.73683 6.34966e-07L10.421 1.38037e-07C10.6723 1.16072e-07 10.9133 0.0948211 11.0909 0.263604C11.2686 0.432386 11.3684 0.661305 11.3684 0.9C11.3684 1.13869 11.2686 1.36761 11.0909 1.5364C10.9133 1.70518 10.6723 1.8 10.421 1.8L4.73683 1.8C3.98306 1.8 3.26016 2.08446 2.72716 2.59081C2.19417 3.09716 1.89473 3.78392 1.89473 4.5C1.89473 5.21609 2.19417 5.90284 2.72716 6.40919C3.26016 6.91554 3.98306 7.2 4.73683 7.2L8.76567 7.2L8.17199 6.636C7.9995 6.46618 7.90412 6.2388 7.9064 6.00282C7.90867 5.76684 8.00842 5.54115 8.18415 5.37436C8.35988 5.20758 8.59754 5.11303 8.84594 5.11109C9.09434 5.10915 9.3336 5.19998 9.5122 5.364L11.7227 7.464C11.8551 7.58984 11.9453 7.75014 11.9818 7.92464C12.0183 8.09914 11.9996 8.28001 11.928 8.4444Z" fill="#5C3A83"/>
</svg>
