<svg width="28" height="28" viewBox="0 0 28 28" fill="none" xmlns="http://www.w3.org/2000/svg">
<path d="M9.61456 0.767499C6.72608 1.74944 4.23506 3.6132 2.50739 6.08502C0.779725 8.55684 -0.0935289 11.5064 0.015899 14.5005C0.125327 17.4946 1.21167 20.3755 3.11536 22.7198C5.01905 25.0642 7.63974 26.7486 10.5925 27.5255C12.9864 28.1308 15.4944 28.1574 17.9011 27.603C20.0813 27.1231 22.097 26.0965 23.7507 24.6239C25.4719 23.0445 26.7212 21.0351 27.3643 18.812C28.0634 16.3944 28.1878 13.852 27.728 11.38H14.2852V16.8444H22.0704C21.9148 17.716 21.5813 18.5478 21.09 19.2901C20.5987 20.0324 19.9597 20.67 19.2111 21.1647C18.2604 21.7809 17.1888 22.1955 16.0649 22.3819C14.9378 22.5873 13.7817 22.5873 12.6545 22.3819C11.5121 22.1505 10.4315 21.6884 9.4813 21.0252C7.95487 19.9664 6.80873 18.4621 6.20644 16.7271C5.59396 14.9596 5.59396 13.0434 6.20644 11.2759C6.63516 10.037 7.34391 8.90896 8.27977 7.976C9.35074 6.88874 10.7066 6.11157 12.1987 5.72974C13.6907 5.34791 15.2612 5.37618 16.738 5.81146C17.8916 6.15847 18.9465 6.76478 19.8186 7.58204C20.6964 6.72626 21.5727 5.86826 22.4475 5.00805C22.8992 4.54549 23.3916 4.10505 23.8365 3.63142C22.5053 2.41741 20.9426 1.47276 19.2382 0.851602C16.1343 -0.252824 12.7381 -0.282505 9.61456 0.767499Z" fill="white"/>
<path d="M9.61456 0.767499C12.7378 -0.283219 16.134 -0.254319 19.2382 0.849388C20.9429 1.47477 22.5049 2.42397 23.8343 3.64249C23.3826 4.11612 22.906 4.55877 22.4453 5.01912C21.569 5.87638 20.6934 6.73069 19.8186 7.58204C18.9465 6.76478 17.8916 6.15847 16.738 5.81146C15.2617 5.37466 13.6912 5.34475 12.1988 5.72501C10.7064 6.10528 9.34966 6.88103 8.27751 7.96715C7.34165 8.9001 6.6329 10.0281 6.20418 11.2671L1.52224 7.71484C3.19809 4.4582 6.09972 1.96712 9.61456 0.767499Z" fill="#E33629"/>
<path d="M0.280051 11.2339C0.5317 10.0117 0.949488 8.82815 1.52224 7.71484L6.20418 11.2759C5.5917 13.0434 5.5917 14.9596 6.20418 16.7271C4.64428 17.9075 3.08364 19.0938 1.52224 20.286C0.0884165 17.4892 -0.348876 14.3025 0.280051 11.2339Z" fill="#F8BD00"/>
<path d="M14.2852 11.3777H27.728C28.1878 13.8498 28.0634 16.3922 27.3643 18.8098C26.7212 21.0329 25.4719 23.0422 23.7507 24.6217C22.2397 23.4664 20.722 22.32 19.2111 21.1647C19.9602 20.6695 20.5995 20.0312 21.0908 19.2881C21.5822 18.545 21.9153 17.7123 22.0704 16.84H14.2852C14.2829 15.0207 14.2852 13.1992 14.2852 11.3777Z" fill="#587DBD"/>
<path d="M1.51998 20.286C3.08138 19.1056 4.64203 17.9193 6.20192 16.7271C6.80541 18.4627 7.95319 19.9671 9.4813 21.0252C10.4344 21.6854 11.5174 22.1436 12.6613 22.3709C13.7884 22.5762 14.9446 22.5762 16.0717 22.3709C17.1955 22.1845 18.2672 21.7698 19.2178 21.1536C20.7288 22.3089 22.2465 23.4554 23.7575 24.6107C22.104 26.0841 20.0883 27.1114 17.9079 27.5919C15.5012 28.1463 12.9931 28.1197 10.5993 27.5144C8.70596 27.019 6.93747 26.1458 5.40466 24.9493C3.78227 23.6871 2.45717 22.0964 1.51998 20.286Z" fill="#319F43"/>
</svg>
