<svg width="193" height="182" viewBox="0 0 193 182" fill="none" xmlns="http://www.w3.org/2000/svg">
<path d="M88.41 182C33.6546 182 0 146.128 0 91C0 35.8725 37.9282 0 99.3611 0C155.452 0 192.803 25.7116 192.803 68.1782C180.646 57.388 162.98 53.0996 147.44 53.2373C147.44 47.1015 132.749 37.9826 98.2927 37.9826C57.6935 37.9826 42.4688 51.6985 42.4688 91C42.4688 130.301 53.3211 144.017 92.5848 144.017V182C77.9491 182 104.537 182 88.41 182Z" fill="url(#paint0_radial_1_36)"/>
<path d="M143.728 182C143.728 179.875 142.825 177.837 141.217 176.334C139.61 174.831 137.429 173.987 135.155 173.987C132.882 173.987 130.701 174.831 129.093 176.334C127.485 177.837 126.582 179.875 126.582 182H143.728Z" fill="url(#paint1_radial_1_36)"/>
<path fill-rule="evenodd" clip-rule="evenodd" d="M118.896 94.4079V118.447H128.947L137.52 108.776C139.491 109.145 154.075 111.926 154.075 120.105C154.075 128.284 150.134 131.066 148.163 131.434H118.896C117.418 129.316 112.51 125.079 104.706 125.079C96.9009 125.079 93.3731 129.316 92.5848 131.434V135.303H110.618C104.233 135.303 102.439 141.75 102.341 144.974V182H116.531C116.531 176.75 120.433 166.25 134.86 166.25C149.286 166.25 153.583 176.75 154.075 182H169.448V171.224C169.35 170.118 170.099 167.908 173.883 167.908C177.667 167.908 178.613 170.118 178.613 171.224V182H192.803C192.803 154.389 192.803 142.415 192.803 120.105C192.803 83.7774 143.433 82.5467 118.896 82.5467V88.0526C118.107 87.2237 112.284 82.9519 110.629 84.9414C108.973 86.9309 116.728 93.1184 118.896 94.4079ZM128.947 104.079C130.743 104.079 132.199 102.718 132.199 101.039C132.199 99.3608 130.743 98 128.947 98C127.151 98 125.695 99.3608 125.695 101.039C125.695 102.718 127.151 104.079 128.947 104.079Z" fill="url(#paint2_radial_1_36)"/>
<path fill-rule="evenodd" clip-rule="evenodd" d="M118.885 94.3459V118.385H128.936L137.51 108.714C139.481 109.083 154.075 111.926 154.075 120.105C154.075 128.284 150.134 131.066 148.163 131.434H118.896C117.418 129.316 112.51 125.079 104.705 125.079C96.9009 125.079 93.3731 129.316 92.5847 131.434V135.303H110.618C104.232 135.303 102.439 141.75 102.34 144.974V182H116.531C116.531 176.75 120.433 166.25 134.86 166.25C149.286 166.25 153.583 176.75 154.075 182H169.448V171.224C169.35 170.118 170.099 167.908 173.883 167.908C177.667 167.908 178.613 170.118 178.613 171.224V182H192.803C192.803 154.389 192.803 142.415 192.803 120.105C192.803 83.7774 143.422 82.4846 118.885 82.4846V87.9906C118.097 87.1617 112.274 82.8899 110.618 84.8794C108.963 86.8688 116.717 93.0564 118.885 94.3459ZM128.936 104.017C130.732 104.017 132.188 102.656 132.188 100.977C132.188 99.2988 130.732 97.938 128.936 97.938C127.14 97.938 125.685 99.2988 125.685 100.977C125.685 102.656 127.14 104.017 128.936 104.017Z" fill="white"/>
<defs>
<radialGradient id="paint0_radial_1_36" cx="0" cy="0" r="1" gradientUnits="userSpaceOnUse" gradientTransform="translate(168.451 85.4155) rotate(129.787) scale(144.634 289.861)">
<stop stop-color="#C272FF"/>
<stop offset="0.664532" stop-color="white"/>
</radialGradient>
<radialGradient id="paint1_radial_1_36" cx="0" cy="0" r="1" gradientUnits="userSpaceOnUse" gradientTransform="translate(168.451 85.4155) rotate(129.787) scale(144.634 289.861)">
<stop stop-color="#C272FF"/>
<stop offset="0.664532" stop-color="white"/>
</radialGradient>
<radialGradient id="paint2_radial_1_36" cx="0" cy="0" r="1" gradientUnits="userSpaceOnUse" gradientTransform="translate(168.451 85.4155) rotate(129.787) scale(144.634 289.861)">
<stop stop-color="#C272FF"/>
<stop offset="0.664532" stop-color="white"/>
</radialGradient>
</defs>
</svg>
