<svg width="36" height="36" viewBox="0 0 36 36" fill="none" xmlns="http://www.w3.org/2000/svg">
<path fill-rule="evenodd" clip-rule="evenodd" d="M10.1508 34.2578L24.8746 19.5289C25.9884 18.4161 26.6144 16.9064 26.615 15.332C26.6156 13.7577 25.9907 12.2475 24.8777 11.1339C23.7648 10.0202 22.255 9.39423 20.6805 9.39364C19.106 9.39305 17.5958 10.0179 16.482 11.1307L1.74344 25.847C1.191 26.399 0.75269 27.0543 0.45355 27.7757C0.154409 28.4971 0.000293406 29.2703 4.18532e-07 30.0512C-0.000292569 30.8321 0.153243 31.6054 0.451842 32.327C0.750441 33.0486 1.18825 33.7043 1.74029 34.2567C2.29232 34.8091 2.94776 35.2474 3.66918 35.5465C4.3906 35.8456 5.16388 35.9997 5.94487 36C6.72585 36.0003 7.49924 35.8468 8.22089 35.5482C8.94254 35.2496 9.59831 34.8097 10.1508 34.2578ZM16.4631 15.3288L20.6699 19.5352L22.7733 17.432C23.0495 17.1558 23.2686 16.8279 23.4181 16.467C23.5676 16.1061 23.6445 15.7194 23.6445 15.3288C23.6445 14.9382 23.5676 14.5514 23.4181 14.1905C23.2686 13.8296 23.0495 13.5017 22.7733 13.2255C22.4971 12.9493 22.1691 12.7302 21.8082 12.5808C21.4473 12.4313 21.0605 12.3544 20.6699 12.3544C20.2792 12.3544 19.8924 12.4313 19.5315 12.5808C19.1706 12.7302 18.8427 12.9493 18.5665 13.2255L16.4631 15.3288Z" fill="black"/>
<path fill-rule="evenodd" clip-rule="evenodd" d="M10.1508 34.2578L24.8746 19.5289C25.9884 18.4161 26.6144 16.9064 26.615 15.332C26.6156 13.7577 25.9907 12.2475 24.8777 11.1339C23.7648 10.0202 22.255 9.39423 20.6805 9.39364C19.106 9.39305 17.5958 10.0179 16.482 11.1307L1.74344 25.847C1.191 26.399 0.75269 27.0543 0.45355 27.7757C0.154409 28.4971 0.000293406 29.2703 4.18532e-07 30.0512C-0.000292569 30.8321 0.153243 31.6054 0.451842 32.327C0.750441 33.0486 1.18825 33.7043 1.74029 34.2567C2.29232 34.8091 2.94776 35.2474 3.66918 35.5465C4.3906 35.8456 5.16388 35.9997 5.94487 36C6.72585 36.0003 7.49924 35.8468 8.22089 35.5482C8.94254 35.2496 9.59831 34.8097 10.1508 34.2578ZM16.4631 15.3288L20.6699 19.5352L22.7733 17.432C23.0495 17.1558 23.2686 16.8279 23.4181 16.467C23.5676 16.1061 23.6445 15.7194 23.6445 15.3288C23.6445 14.9382 23.5676 14.5514 23.4181 14.1905C23.2686 13.8296 23.0495 13.5017 22.7733 13.2255C22.4971 12.9493 22.1691 12.7302 21.8082 12.5808C21.4473 12.4313 21.0605 12.3544 20.6699 12.3544C20.2792 12.3544 19.8924 12.4313 19.5315 12.5808C19.1706 12.7302 18.8427 12.9493 18.5665 13.2255L16.4631 15.3288Z" fill="url(#paint0_linear_7_63)"/>
<path d="M7.5425 2.49284C7.68133 1.97335 8.41752 1.97335 8.55634 2.49284L9.31147 5.28592C9.33546 5.37458 9.38227 5.4554 9.44722 5.52035C9.51217 5.58529 9.593 5.63209 9.68167 5.65609L12.475 6.40904C12.9945 6.54786 12.9945 7.28399 12.475 7.4228L9.67956 8.17785C9.5909 8.20185 9.51007 8.24865 9.44512 8.3136C9.38017 8.37854 9.33336 8.45937 9.30936 8.54802L8.55424 11.339C8.41542 11.8585 7.67922 11.8585 7.5404 11.339L6.78738 8.54592C6.76338 8.45726 6.71658 8.37644 6.65163 8.31149C6.58668 8.24655 6.50585 8.19975 6.41718 8.17575L3.62176 7.4228C3.10432 7.28399 3.10432 6.54786 3.62176 6.40904L6.41928 5.65399C6.50795 5.62999 6.58878 5.58319 6.65373 5.51825C6.71868 5.4533 6.76549 5.37248 6.78948 5.28382L7.5425 2.49284ZM28.5766 0.389622C28.7154 -0.129874 29.4516 -0.129874 29.5904 0.389622L30.3434 3.1827C30.3674 3.27136 30.4142 3.35218 30.4792 3.41713C30.5441 3.48207 30.625 3.52887 30.7136 3.55287L33.5069 4.30582C34.0265 4.44463 34.0265 5.18076 33.5069 5.31958L30.7136 6.07253C30.625 6.09653 30.5441 6.14333 30.4792 6.20827C30.4142 6.27322 30.3674 6.35404 30.3434 6.4427L29.5904 9.23577C29.4516 9.75527 28.7154 9.75527 28.5766 9.23577L27.8214 6.4427C27.7973 6.35379 27.7501 6.27279 27.6848 6.20783C27.6194 6.14286 27.5382 6.0962 27.4491 6.07253L24.6558 5.31958C24.1384 5.18076 24.1384 4.44463 24.6558 4.30582L27.4491 3.55287C27.5382 3.52919 27.6194 3.48254 27.6848 3.41757C27.7501 3.3526 27.7973 3.27161 27.8214 3.1827L28.5766 0.389622ZM30.68 19.3186C30.8188 18.7991 31.555 18.7991 31.6938 19.3186L32.4468 22.1117C32.4708 22.2004 32.5176 22.2812 32.5826 22.3461C32.6475 22.4111 32.7284 22.4579 32.817 22.4819L35.6103 23.2348C36.1299 23.3736 36.1299 24.1098 35.6103 24.2486L32.817 25.0015C32.7284 25.0255 32.6475 25.0723 32.5826 25.1373C32.5176 25.2022 32.4708 25.283 32.4468 25.3717L31.6938 28.1648C31.555 28.6843 30.8188 28.6843 30.68 28.1648L29.9269 25.3717C29.9028 25.2828 29.8556 25.2018 29.7903 25.1368C29.725 25.0719 29.6437 25.0252 29.5546 25.0015L26.7613 24.2486C26.2439 24.1098 26.2439 23.3736 26.7613 23.2348L29.5546 22.4819C29.6437 22.4582 29.725 22.4115 29.7903 22.3466C29.8556 22.2816 29.9028 22.2006 29.9269 22.1117L30.68 19.3186Z" fill="black"/>
<path d="M7.5425 2.49284C7.68133 1.97335 8.41752 1.97335 8.55634 2.49284L9.31147 5.28592C9.33546 5.37458 9.38227 5.4554 9.44722 5.52035C9.51217 5.58529 9.593 5.63209 9.68167 5.65609L12.475 6.40904C12.9945 6.54786 12.9945 7.28399 12.475 7.4228L9.67956 8.17785C9.5909 8.20185 9.51007 8.24865 9.44512 8.3136C9.38017 8.37854 9.33336 8.45937 9.30936 8.54802L8.55424 11.339C8.41542 11.8585 7.67922 11.8585 7.5404 11.339L6.78738 8.54592C6.76338 8.45726 6.71658 8.37644 6.65163 8.31149C6.58668 8.24655 6.50585 8.19975 6.41718 8.17575L3.62176 7.4228C3.10432 7.28399 3.10432 6.54786 3.62176 6.40904L6.41928 5.65399C6.50795 5.62999 6.58878 5.58319 6.65373 5.51825C6.71868 5.4533 6.76549 5.37248 6.78948 5.28382L7.5425 2.49284ZM28.5766 0.389622C28.7154 -0.129874 29.4516 -0.129874 29.5904 0.389622L30.3434 3.1827C30.3674 3.27136 30.4142 3.35218 30.4792 3.41713C30.5441 3.48207 30.625 3.52887 30.7136 3.55287L33.5069 4.30582C34.0265 4.44463 34.0265 5.18076 33.5069 5.31958L30.7136 6.07253C30.625 6.09653 30.5441 6.14333 30.4792 6.20827C30.4142 6.27322 30.3674 6.35404 30.3434 6.4427L29.5904 9.23577C29.4516 9.75527 28.7154 9.75527 28.5766 9.23577L27.8214 6.4427C27.7973 6.35379 27.7501 6.27279 27.6848 6.20783C27.6194 6.14286 27.5382 6.0962 27.4491 6.07253L24.6558 5.31958C24.1384 5.18076 24.1384 4.44463 24.6558 4.30582L27.4491 3.55287C27.5382 3.52919 27.6194 3.48254 27.6848 3.41757C27.7501 3.3526 27.7973 3.27161 27.8214 3.1827L28.5766 0.389622ZM30.68 19.3186C30.8188 18.7991 31.555 18.7991 31.6938 19.3186L32.4468 22.1117C32.4708 22.2004 32.5176 22.2812 32.5826 22.3461C32.6475 22.4111 32.7284 22.4579 32.817 22.4819L35.6103 23.2348C36.1299 23.3736 36.1299 24.1098 35.6103 24.2486L32.817 25.0015C32.7284 25.0255 32.6475 25.0723 32.5826 25.1373C32.5176 25.2022 32.4708 25.283 32.4468 25.3717L31.6938 28.1648C31.555 28.6843 30.8188 28.6843 30.68 28.1648L29.9269 25.3717C29.9028 25.2828 29.8556 25.2018 29.7903 25.1368C29.725 25.0719 29.6437 25.0252 29.5546 25.0015L26.7613 24.2486C26.2439 24.1098 26.2439 23.3736 26.7613 23.2348L29.5546 22.4819C29.6437 22.4582 29.725 22.4115 29.7903 22.3466C29.8556 22.2816 29.9028 22.2006 29.9269 22.1117L30.68 19.3186Z" fill="url(#paint1_linear_7_63)"/>
<defs>
<linearGradient id="paint0_linear_7_63" x1="18.4608" y1="0" x2="18.4608" y2="32.339" gradientUnits="userSpaceOnUse">
<stop stop-color="#F3EBFE"/>
<stop offset="1" stop-color="#D6B3FF"/>
</linearGradient>
<linearGradient id="paint1_linear_7_63" x1="18.4608" y1="0" x2="18.4608" y2="32.339" gradientUnits="userSpaceOnUse">
<stop stop-color="#F3EBFE"/>
<stop offset="1" stop-color="#D6B3FF"/>
</linearGradient>
</defs>
</svg>
