<svg width="36" height="36" viewBox="0 0 36 36" fill="none" xmlns="http://www.w3.org/2000/svg">
<path d="M17.7918 0.0125999L17.9972 0L18.2099 0.0125999L18.3162 0.0270002L18.4262 0.0504002L18.6262 0.1116C18.7644 0.162591 18.8957 0.230295 19.0173 0.3132L19.2048 0.4608L19.6644 0.853199C23.3002 3.86921 27.8952 5.48874 32.6211 5.4198L33.2375 5.4018C33.6405 5.38343 34.038 5.50063 34.3664 5.73461C34.6948 5.9686 34.9351 6.30586 35.0488 6.6924C35.9345 9.70123 36.2055 12.8572 35.8458 15.9727C35.486 19.0882 34.5029 22.0997 32.9548 24.8282C31.4067 27.5568 29.3252 29.9467 26.834 31.856C24.3428 33.7652 21.4928 35.1549 18.4532 35.9424C18.1565 36.0192 17.8451 36.0192 17.5485 35.9424C14.5087 35.1551 11.6585 33.7656 9.16709 31.8564C6.6757 29.9472 4.59401 27.5573 3.04573 24.8288C1.49745 22.1002 0.514175 19.0886 0.154334 15.973C-0.205506 12.8574 0.0654332 9.70135 0.951052 6.6924C1.0648 6.30586 1.3051 5.9686 1.63349 5.73461C1.96188 5.50063 2.35938 5.38343 2.76237 5.4018C7.6961 5.62704 12.5364 4.00498 16.3355 0.853199L16.8095 0.4482L16.9825 0.3132C17.1042 0.230295 17.2355 0.162591 17.3736 0.1116L17.5755 0.0504002C17.6462 0.0334938 17.7196 0.0208705 17.7918 0.0125999Z" fill="black"/>
<path d="M17.7918 0.0125999L17.9972 0L18.2099 0.0125999L18.3162 0.0270002L18.4262 0.0504002L18.6262 0.1116C18.7644 0.162591 18.8957 0.230295 19.0173 0.3132L19.2048 0.4608L19.6644 0.853199C23.3002 3.86921 27.8952 5.48874 32.6211 5.4198L33.2375 5.4018C33.6405 5.38343 34.038 5.50063 34.3664 5.73461C34.6948 5.9686 34.9351 6.30586 35.0488 6.6924C35.9345 9.70123 36.2055 12.8572 35.8458 15.9727C35.486 19.0882 34.5029 22.0997 32.9548 24.8282C31.4067 27.5568 29.3252 29.9467 26.834 31.856C24.3428 33.7652 21.4928 35.1549 18.4532 35.9424C18.1565 36.0192 17.8451 36.0192 17.5485 35.9424C14.5087 35.1551 11.6585 33.7656 9.16709 31.8564C6.6757 29.9472 4.59401 27.5573 3.04573 24.8288C1.49745 22.1002 0.514175 19.0886 0.154334 15.973C-0.205506 12.8574 0.0654332 9.70135 0.951052 6.6924C1.0648 6.30586 1.3051 5.9686 1.63349 5.73461C1.96188 5.50063 2.35938 5.38343 2.76237 5.4018C7.6961 5.62704 12.5364 4.00498 16.3355 0.853199L16.8095 0.4482L16.9825 0.3132C17.1042 0.230295 17.2355 0.162591 17.3736 0.1116L17.5755 0.0504002C17.6462 0.0334938 17.7196 0.0208705 17.7918 0.0125999Z" fill="url(#paint0_linear_7_65)"/>
<defs>
<linearGradient id="paint0_linear_7_65" x1="18.4608" y1="0" x2="18.4608" y2="32.339" gradientUnits="userSpaceOnUse">
<stop stop-color="#F3EBFE"/>
<stop offset="1" stop-color="#D6B3FF"/>
</linearGradient>
</defs>
</svg>
