<svg width="33" height="36" viewBox="0 0 33 36" fill="none" xmlns="http://www.w3.org/2000/svg">
<path d="M19.3172 2.60152C19.3827 2.11497 19.2879 1.62067 19.0468 1.19041C18.8057 0.760161 18.4308 0.41636 17.9765 0.208947C17.5093 -0.00570282 16.9809 -0.0568147 16.4798 0.0641561C15.9787 0.185127 15.5351 0.470848 15.2234 0.87355L0.507305 19.3587C0.240206 19.6955 0.0711389 20.0967 0.0180224 20.5199C-0.0350942 20.943 0.0297187 21.3724 0.205592 21.7624C0.529934 22.4879 1.28045 23.1304 2.31004 23.1304H14.9103L13.6846 33.3985C13.6192 33.885 13.7139 34.3793 13.955 34.8096C14.1961 35.2398 14.5711 35.5836 15.0254 35.7911C15.4926 36.0057 16.021 36.0568 16.5221 35.9358C17.0232 35.8149 17.4667 35.5292 17.7785 35.1264L32.4927 16.6413C32.7598 16.3045 32.9289 15.9033 32.982 15.4801C33.0351 15.057 32.9703 14.6276 32.7944 14.2376C32.6182 13.8335 32.3251 13.4886 31.9511 13.2455C31.5772 13.0025 31.1388 12.8718 30.69 12.8696H18.0897L19.3172 2.60152Z" fill="black"/>
<path d="M19.3172 2.60152C19.3827 2.11497 19.2879 1.62067 19.0468 1.19041C18.8057 0.760161 18.4308 0.41636 17.9765 0.208947C17.5093 -0.00570282 16.9809 -0.0568147 16.4798 0.0641561C15.9787 0.185127 15.5351 0.470848 15.2234 0.87355L0.507305 19.3587C0.240206 19.6955 0.0711389 20.0967 0.0180224 20.5199C-0.0350942 20.943 0.0297187 21.3724 0.205592 21.7624C0.529934 22.4879 1.28045 23.1304 2.31004 23.1304H14.9103L13.6846 33.3985C13.6192 33.885 13.7139 34.3793 13.955 34.8096C14.1961 35.2398 14.5711 35.5836 15.0254 35.7911C15.4926 36.0057 16.021 36.0568 16.5221 35.9358C17.0232 35.8149 17.4667 35.5292 17.7785 35.1264L32.4927 16.6413C32.7598 16.3045 32.9289 15.9033 32.982 15.4801C33.0351 15.057 32.9703 14.6276 32.7944 14.2376C32.6182 13.8335 32.3251 13.4886 31.9511 13.2455C31.5772 13.0025 31.1388 12.8718 30.69 12.8696H18.0897L19.3172 2.60152Z" fill="url(#paint0_linear_7_59)"/>
<defs>
<linearGradient id="paint0_linear_7_59" x1="16.9224" y1="0" x2="16.9224" y2="32.339" gradientUnits="userSpaceOnUse">
<stop stop-color="#F3EBFE"/>
<stop offset="1" stop-color="#D6B3FF"/>
</linearGradient>
</defs>
</svg>
